<svg width="512" height="512" viewBox="0 0 512 512" fill="none" xmlns="http://www.w3.org/2000/svg">
<rect width="512" height="512" rx="80" fill="#18181A"/>
<path d="M64.3791 366V147.818H151.737C167.788 147.818 181.176 150.197 191.9 154.956C202.625 159.714 210.686 166.32 216.084 174.771C221.481 183.152 224.18 192.811 224.18 203.749C224.18 212.271 222.476 219.764 219.067 226.227C215.658 232.619 210.97 237.875 205.004 241.994C199.109 246.043 192.362 248.919 184.763 250.624V252.754C193.072 253.109 200.849 255.453 208.094 259.786C215.409 264.118 221.339 270.19 225.885 278.003C230.43 285.744 232.703 294.977 232.703 305.702C232.703 317.278 229.827 327.612 224.074 336.703C218.392 345.723 209.976 352.861 198.825 358.116C187.675 363.372 173.932 366 157.596 366H64.3791ZM110.508 328.287H148.115C160.97 328.287 170.345 325.837 176.24 320.936C182.135 315.964 185.082 309.359 185.082 301.121C185.082 295.084 183.626 289.757 180.714 285.141C177.802 280.524 173.648 276.902 168.25 274.274C162.923 271.646 156.567 270.332 149.18 270.332H110.508V328.287ZM110.508 239.118H144.706C151.027 239.118 156.638 238.017 161.538 235.815C166.51 233.543 170.416 230.347 173.257 226.227C176.169 222.108 177.625 217.172 177.625 211.419C177.625 203.536 174.819 197.179 169.209 192.349C163.669 187.52 155.785 185.105 145.558 185.105H110.508V239.118ZM262.719 366V147.818H308.848V237.839H402.492V147.818H448.514V366H402.492V275.872H308.848V366H262.719Z" fill="white"/>
<rect x="262" y="393" width="186" height="38" fill="url(#paint0_linear_301_12)"/>
<defs>
<linearGradient id="paint0_linear_301_12" x1="262" y1="412" x2="448" y2="412" gradientUnits="userSpaceOnUse">
<stop stop-color="#18181A"/>
<stop offset="1" stop-color="white"/>
</linearGradient>
</defs>
</svg>
